<?xml version="1.0" encoding="utf-8"?>
<!-- Generator: Adobe Illustrator 15.0.0, SVG Export Plug-In . SVG Version: 6.00 Build 0)  -->
<!DOCTYPE svg PUBLIC "-//W3C//DTD SVG 1.1//EN" "http://www.w3.org/Graphics/SVG/1.1/DTD/svg11.dtd">
<svg version="1.1" id="Layer_1" xmlns="http://www.w3.org/2000/svg" xmlns:xlink="http://www.w3.org/1999/xlink" x="0px" y="0px"
	 width="400px" height="400px" viewBox="0 0 400 400" enable-background="new 0 0 400 400" xml:space="preserve">
<g id="Layer_1_2_">
	<path fill="#FFFFFF" d="M197.419,399.967C143.384,398.6,100,354.366,100,300c0-55.229,44.771-100,100-100s100-44.771,100-100
		c0-54.365-43.383-98.599-97.419-99.968C201.721,0.021,200.863,0,200,0C89.543,0,0,89.543,0,200
		C0,309.594,88.152,398.583,197.419,399.967z"/>
	<path fill="#FFFFFF" d="M202.581,0.032C311.848,1.417,400,90.406,400,200c0,110.457-89.543,200-200,200
		c-0.863,0-1.721-0.021-2.581-0.033C143.384,398.6,100,354.366,100,300c0-55.229,44.771-100,100-100s100-44.771,100-100
		C300,45.635,256.617,1.401,202.581,0.032z M200,333.334c18.227,0,33-14.773,33-33s-14.773-33-33-33s-33,14.773-33,33
		S181.773,333.334,200,333.334z"/>
</g>
<g id="Layer_1_1_">
	<path d="M202.581,0.033C256.616,1.401,300,45.634,300,100c0,55.229-44.771,100-100,100c-55.229,0-100,44.771-100,100
		c0,54.365,43.383,98.599,97.419,99.968c0.86,0.011,1.718,0.032,2.581,0.032c110.457,0,200-89.543,200-200
		C400,90.406,311.848,1.417,202.581,0.033z"/>
	<path d="M197.419,399.968C88.153,398.583,0,309.594,0,200C0,89.543,89.543,0,200,0c0.863,0,1.721,0.021,2.581,0.033
		C256.616,1.401,300,45.634,300,100c0,55.229-44.771,100-100,100c-55.229,0-100,44.771-100,100
		C100,354.365,143.383,398.599,197.419,399.968z M200,66.666c-18.226,0-33,14.774-33,33s14.774,33,33,33c18.227,0,33-14.774,33-33
		S218.227,66.666,200,66.666z"/>
</g>
</svg>
